# xmcd
#
# Track frame offsets: 
#        150
#        28680
#        47412
#        60175
#        88285
#        105795
#        118800
#        149947
#        162750
#        174900
#        204810
#        225222
#        244845
#        267285
#
# Disc length: 3788 seconds
#
# Revision: 4
# Processed by: cddbd v1.5.2PL0 Copyright (c) Steve Scherf et al.
# Submitted via: ExactAudioCopy v0.99pb4
#
DISCID=ad0eca0e
DTITLE=Various Artist - The Blues Guitar Box Cd 3
DYEAR=1900
DGENRE=Blues
TTITLE0=Little Milton - Walking The Backstreets And Crying
TTITLE1=Robert Cray - The Score
TTITLE2=Jimmy Page and Eric Clapton - Freight Loader
TTITLE3=Hound Dog Taylor and the House Rockers - Sadie
TTITLE4=Matt 'Guitar' Murphy - Takin Off
TTITLE5=John Mayall's Blues Breakers featuring Peter Green - The Stumb
TTITLE5=le
TTITLE6=BB King - Outside Help
TTITLE7=Jimmy Reed - Shame Shame Shame
TTITLE8=Elmore James - The Sun Is Shining
TTITLE9=Joe Louis Walker - City Of Angles
TTITLE10=George Thorogood and the Destroyers - Madison Blues
TTITLE11=Fenton Robinson - Texas Flood
TTITLE12=Albert Collins - Thaw Out
TTITLE13=Freddie King - I'm Ready
EXTD=
EXTT0=
EXTT1=
EXTT2=
EXTT3=
EXTT4=
EXTT5=
EXTT6=
EXTT7=
EXTT8=
EXTT9=
EXTT10=
EXTT11=
EXTT12=
EXTT13=
PLAYORDER=
